<?xml version="1.0" encoding="utf-8"?>
<svg x="0pt" y="0pt" width="24pt" height="24pt" viewBox="0 0 24 24" xmlns="http://www.w3.org/2000/svg" xmlns:xlink="http://www.w3.org/1999/xlink">
  <!--Generated by AMDN-->
  <g id="Layer_1">
    <path id="Clouds_White" style="fill:#ffffff;fill-opacity:1;fill-rule:evenodd;opacity:1;stroke:none;" d="M2.5105e-07,18.2115 C2.5105e-07,17.8909,0.0839617,17.5872,0.233896,17.3161 C0.0893727,17.1908,2.5105e-07,17.0179,2.5105e-07,16.8269 C2.5105e-07,16.4446,0.358173,16.1346,0.8,16.1346 C1.0207,16.1346,1.22053,16.212,1.36527,16.337 C1.67858,16.2073,2.02948,16.1346,2.4,16.1346 C3.15382,16.1346,3.82646,16.4354,4.26645,16.9058 C4.43333,16.8547,4.61291,16.8269,4.8,16.8269 C5.05707,16.8269,5.29998,16.8794,5.51521,16.9726 C5.789,16.8786,6.08753,16.8269,6.4,16.8269 C6.4,16.4446,6.75817,16.1346,7.2,16.1346 C7.64183,16.1346,8,16.4446,8,16.8269 C8,16.8471,7.999,16.8671,7.99704,16.8869 C8.12298,16.8481,8.25864,16.8269,8.4,16.8269 C8.46705,16.8269,8.53281,16.8317,8.59686,16.8408 C8.87218,16.5698,9.22778,16.3614,9.6315,16.2434 C9.75557,15.7842,10.2316,15.4423,10.8,15.4423 C11.4627,15.4423,12,15.9072,12,16.4808 C12,16.5388,11.9945,16.5957,11.9839,16.6511 C12.2904,16.8843,12.5276,17.1839,12.6654,17.5241 C12.7098,17.5209,12.7546,17.5192,12.8,17.5192 C12.8336,17.5192,12.8669,17.5201,12.9,17.5219 C12.9407,17.3845,12.9933,17.2512,13.0568,17.1228 C12.896,16.9461,12.8,16.7232,12.8,16.4808 C12.8,15.9072,13.3373,15.4423,14,15.4423 C14.2801,15.4423,14.5378,15.5253,14.7419,15.6645 C15.1281,15.5215,15.5534,15.4423,16,15.4423 C16.0227,15.4423,16.0454,15.4425,16.068,15.4429 C16.2326,15.0393,16.6772,14.75,17.2,14.75 C17.8627,14.75,18.4,15.2149,18.4,15.7885 C18.4,15.958,18.353,16.1181,18.2698,16.2595 C18.374,16.3503,18.4711,16.4473,18.5601,16.5498 C18.9612,16.2891,19.4597,16.1346,20,16.1346 C20.3705,16.1346,20.7214,16.2073,21.0347,16.337 C21.1795,16.212,21.3793,16.1346,21.6,16.1346 C22.0418,16.1346,22.4,16.4446,22.4,16.8269 C23.2837,16.8269,24,17.4468,24,18.2115 C24,18.2115,24,23.75,24,23.75 C24,23.75,2.5105e-07,23.75,2.5105e-07,23.75 C2.5105e-07,23.75,2.5105e-07,18.2115,2.5105e-07,18.2115 z"/>
    <path id="Clouds_White_Copy" style="fill:#dbdbdb;fill-opacity:1;fill-rule:evenodd;opacity:1;stroke:none;" d="M2.5105e-07,18.4653 C2.5105e-07,18.1446,0.0839617,17.841,0.233896,17.5698 C0.0893727,17.4446,2.5105e-07,17.2717,2.5105e-07,17.0807 C2.5105e-07,16.6983,0.358173,16.3884,0.8,16.3884 C1.0207,16.3884,1.22053,16.4657,1.36527,16.5908 C1.67858,16.461,2.02948,16.3884,2.4,16.3884 C3.15382,16.3884,3.82646,16.6891,4.26645,17.1595 C4.43333,17.1085,4.61291,17.0807,4.8,17.0807 C5.05707,17.0807,5.29998,17.1331,5.51521,17.2264 C5.789,17.1323,6.08753,17.0807,6.4,17.0807 C6.4,16.6983,6.75817,16.3884,7.2,16.3884 C7.64183,16.3884,8,16.6983,8,17.0807 C8,17.1009,7.999,17.1209,7.99704,17.1407 C8.12298,17.1018,8.25864,17.0807,8.4,17.0807 C8.46705,17.0807,8.53281,17.0854,8.59686,17.0946 C8.87218,16.8236,9.22778,16.6151,9.6315,16.4971 C9.75557,16.038,10.2316,15.6961,10.8,15.6961 C11.4627,15.6961,12,16.161,12,16.7345 C12,16.7925,11.9945,16.8494,11.9839,16.9049 C12.2904,17.138,12.5276,17.4377,12.6654,17.7778 C12.7098,17.7746,12.7546,17.773,12.8,17.773 C12.8336,17.773,12.8669,17.7739,12.9,17.7756 C12.9407,17.6382,12.9933,17.5049,13.0568,17.3766 C12.896,17.1999,12.8,16.9769,12.8,16.7345 C12.8,16.161,13.3373,15.6961,14,15.6961 C14.2801,15.6961,14.5378,15.7791,14.7419,15.9183 C15.1281,15.7752,15.5534,15.6961,16,15.6961 C16.0227,15.6961,16.0454,15.6963,16.068,15.6967 C16.2326,15.293,16.6772,15.0037,17.2,15.0037 C17.8627,15.0037,18.4,15.4687,18.4,16.0422 C18.4,16.2118,18.353,16.3719,18.2698,16.5132 C18.374,16.604,18.4711,16.701,18.5601,16.8036 C18.9612,16.5428,19.4597,16.3884,20,16.3884 C20.3705,16.3884,20.7214,16.461,21.0347,16.5908 C21.1795,16.4657,21.3793,16.3884,21.6,16.3884 C22.0418,16.3884,22.4,16.6983,22.4,17.0807 C23.2837,17.0807,24,17.7006,24,18.4653 C24,18.4653,24,24.0037,24,24.0037 C24,24.0037,2.5105e-07,24.0037,2.5105e-07,24.0037 C2.5105e-07,24.0037,2.5105e-07,18.4653,2.5105e-07,18.4653 z"/>
  </g>
</svg>
