<?xml version="1.0" encoding="utf-8" ?>
<svg
  x="0pt"
  y="0pt"
  width="48pt"
  height="48pt"
  viewBox="0 0 48 48"
  xmlns="http://www.w3.org/2000/svg"
  xmlns:xlink="http://www.w3.org/1999/xlink">
  <g id="Layer_1">
    <g id="Layer_1-1">
      <g id="Group">
        <path
          id="Path"
          style="fill:#60dafb;fill-opacity:1;fill-rule:evenodd;opacity:1;stroke:none;"
          d="M1,9 C1,4.58172,4.58172,1,9,1 C9,1,39,1,39,1 C43.4183,1,47,4.58172,47,9 C47,9,47,39,47,39 C47,43.4183,43.4183,47,39,47 C39,47,9,47,9,47 C4.58172,47,1,43.4183,1,39 C1,39,1,9,1,9 z" />
        <g id="Group-1">
          <path
            id="Path-1"
            style="fill:#9e9e9e;fill-opacity:1;fill-rule:nonzero;opacity:1;stroke:#000000;stroke-linecap:round;stroke-linejoin:round;stroke-miterlimit:10;stroke-opacity:1;stroke-width:2;"
            d="M16,29 C16,29,10,31,10,35 C10,39,16,39,16,39" />
          <path
            id="Path_Copy"
            style="fill:#9e9e9e;fill-opacity:1;fill-rule:nonzero;opacity:1;stroke:#000000;stroke-linecap:round;stroke-linejoin:round;stroke-miterlimit:10;stroke-opacity:1;stroke-width:2;"
            d="M32.0002,29 C32.0002,29,38.0002,31,38.0002,35 C38.0002,39,32.0002,39,32.0002,39" />
          <path
            id="Path-2"
            style="fill:#ffffff;fill-opacity:1;fill-rule:evenodd;opacity:1;stroke:#000000;stroke-linecap:round;stroke-linejoin:round;stroke-miterlimit:10;stroke-opacity:1;stroke-width:2;"
            d="M9,10.1818 C9,7.87226,10.7909,6,13,6 C13,6,35,6,35,6 C37.2091,6,39,7.87226,39,10.1818 C39,10.1818,39,24.8182,39,24.8182 C39,27.1277,37.2091,29,35,29 C35,29,13,29,13,29 C10.7909,29,9,27.1277,9,24.8182 C9,24.8182,9,10.1818,9,10.1818 z" />
          <path
            id="Path-3"
            style="fill:#ffffff;fill-opacity:1;fill-rule:nonzero;opacity:1;stroke:#000000;stroke-linecap:round;stroke-linejoin:round;stroke-miterlimit:10;stroke-opacity:1;stroke-width:2;"
            d="M24,11 C24,11,24,23,24,23" />
          <path
            id="Path-4"
            style="fill:#ffffff;fill-opacity:1;fill-rule:nonzero;opacity:1;stroke:#000000;stroke-linecap:round;stroke-linejoin:round;stroke-miterlimit:10;stroke-opacity:1;stroke-width:2;"
            d="M28,15 C28,15,28,17,28,17" />
          <path
            id="Path_Copy-1"
            style="fill:#ffffff;fill-opacity:1;fill-rule:nonzero;opacity:1;stroke:#000000;stroke-linecap:round;stroke-linejoin:round;stroke-miterlimit:10;stroke-opacity:1;stroke-width:2;"
            d="M20,15 C20,15,20,17,20,17" />
          <path
            id="Path-5"
            style="fill:none;opacity:1;stroke:#000000;stroke-linecap:round;stroke-linejoin:round;stroke-miterlimit:10;stroke-opacity:1;stroke-width:2;"
            d="M32,43 C32,43,30,41,30,41 C30,41,28,43,28,43" />
          <path
            id="Path_Copy-2"
            style="fill:none;opacity:1;stroke:#000000;stroke-linecap:round;stroke-linejoin:round;stroke-miterlimit:10;stroke-opacity:1;stroke-width:2;"
            d="M20,43 C20,43,18,41,18,41 C18,41,16,43,16,43" />
          <path
            id="Path-6"
            style="fill:#e4e4e4;fill-opacity:1;fill-rule:evenodd;opacity:1;stroke:#000000;stroke-linecap:round;stroke-linejoin:round;stroke-miterlimit:10;stroke-opacity:1;stroke-width:2;"
            d="M16,29 C16,29,32,29,32,29 C32,29,32,39,32,39 C32,39,16,39,16,39 C16,39,16,29,16,29 z" />
        </g>
      </g>
    </g>
    <path
      id="Path_0"
      style="fill:#60dafb;fill-opacity:1;fill-rule:nonzero;opacity:1;stroke:none;"
      d="M25.0125,34 C25.0125,34.3481,24.7303,34.6303,24.3822,34.6303 C24.034,34.6303,23.7518,34.3481,23.7518,34 C23.7518,33.6519,24.034,33.3697,24.3822,33.3697 C24.7303,33.3697,25.0125,33.6519,25.0125,34" />
    <g id="Group">
      <path
        id="Path_1"
        style="fill:none;opacity:1;stroke:#60dafb;stroke-linecap:butt;stroke-linejoin:miter;stroke-miterlimit:4;stroke-opacity:1;stroke-width:0.5;"
        d="M27.7643,34 C27.7643,34.7132,26.2501,35.2914,24.3822,35.2914 C22.5142,35.2914,21,34.7132,21,34 C21,33.2868,22.5142,32.7086,24.3822,32.7086 C26.2501,32.7086,27.7643,33.2868,27.7643,34" />
      <path
        id="Path_2"
        style="fill:none;opacity:1;stroke:#60dafb;stroke-linecap:butt;stroke-linejoin:miter;stroke-miterlimit:4;stroke-opacity:1;stroke-width:0.5;"
        d="M26.0732,36.929 C25.4556,37.2856,24.1978,36.2633,23.2638,34.6457 C22.3298,33.028,22.0734,31.4276,22.6911,31.071 C23.3087,30.7144,24.5666,31.7367,25.5005,33.3543 C26.4345,34.972,26.6909,36.5724,26.0732,36.929" />
      <path
        id="Path_3"
        style="fill:none;opacity:1;stroke:#60dafb;stroke-linecap:butt;stroke-linejoin:miter;stroke-miterlimit:4;stroke-opacity:1;stroke-width:0.5;"
        d="M22.6911,36.929 C22.0734,36.5724,22.3298,34.972,23.2638,33.3543 C24.1978,31.7367,25.4556,30.7144,26.0732,31.071 C26.6909,31.4276,26.4345,33.028,25.5005,34.6457 C24.5666,36.2633,23.3087,37.2856,22.6911,36.929" />
    </g>
  </g>
</svg>
