<?xml version="1.0" encoding="utf-8"?>
<svg x="0pt" y="0pt" width="24pt" height="24pt" viewBox="0 0 24 24" xmlns="http://www.w3.org/2000/svg" xmlns:xlink="http://www.w3.org/1999/xlink">
  <!--Generated by AMDN-->
  <g id="Layer_1">
    <path id="Path" style="fill:#3ea9f5;fill-opacity:1;fill-rule:evenodd;opacity:1;stroke:none;" d="M0,0 C0,0,24,0,24,0 C24,0,24,24,24,24 C24,24,0,24,0,24 C0,24,0,0,0,0 z"/>
    <g id="Sun">
      <radialGradient cx="8.22252" cy="5.5" r="7.77817" fx="8.22252" fy="5.5" gradientUnits="userSpaceOnUse" gradientTransform="matrix(0.707107,0.707107,-0.707107,0.707107,6.29741,-4.20329)" id="am2">
        <stop style="stop-color:#fbff8a;stop-opacity:0.518271;"/>
        <stop offset="1" style="stop-color:#fbed21;stop-opacity:0;"/>
      </radialGradient>
      <g id="Path-1">
        <path style="fill:url(#am2);fill-opacity:1;fill-rule:evenodd;opacity:1;stroke:none;" d="M13.7225,7.09762e-07 C16.7601,3.03757,16.7601,7.96243,13.7225,11 C10.6849,14.0376,5.76008,14.0376,2.72252,11 C-0.315047,7.96243,-0.315046,3.03757,2.72252,-1.93948e-07 C5.76009,-3.03757,10.685,-3.03757,13.7225,7.09762e-07 z"/>
      </g>
      <path id="Star" style="fill:#fdbf52;fill-opacity:1;fill-rule:nonzero;opacity:1;stroke:none;" d="M10.4667,2.74417 C10.4667,2.74417,10.2204,3.53513,10.2204,3.53513 C10.2204,3.53513,11.0485,3.51137,11.0485,3.51137 C11.0485,3.51137,10.5979,4.20655,10.5979,4.20655 C10.5979,4.20655,11.4017,4.40708,11.4017,4.40708 C11.4017,4.40708,10.7803,4.95493,10.7803,4.95493 C10.7803,4.95493,11.5002,5.36488,11.5002,5.36488 C11.5002,5.36488,10.754,5.72475,10.754,5.72475 C10.754,5.72475,11.3366,6.31372,11.3366,6.31372 C11.3366,6.31372,10.521,6.45893,10.521,6.45893 C10.521,6.45893,10.923,7.18324,10.923,7.18324 C10.923,7.18324,10.0985,7.10302,10.0985,7.10302 C10.0985,7.10302,10.2903,7.90895,10.2903,7.90895 C10.2903,7.90895,9.51795,7.60925,9.51795,7.60925 C9.51795,7.60925,9.48514,8.43702,9.48514,8.43702 C9.48514,8.43702,8.82233,7.94007,8.82233,7.94007 C8.82233,7.94007,8.56741,8.7283,8.56741,8.7283 C8.56741,8.7283,8.06326,8.07095,8.06326,8.07095 C8.06326,8.07095,7.60513,8.76117,7.60513,8.76117 C7.60513,8.76117,7.29702,7.99218,7.29702,7.99218 C7.29702,7.99218,6.66966,8.5332,6.66966,8.5332 C6.66966,8.5332,6.58045,7.7096,6.58045,7.7096 C6.58045,7.7096,5.83039,8.0613,5.83039,8.0613 C5.83039,8.0613,5.96669,7.24417,5.96669,7.24417 C5.96669,7.24417,5.14956,7.38047,5.14956,7.38047 C5.14956,7.38047,5.50126,6.63041,5.50126,6.63041 C5.50126,6.63041,4.67766,6.5412,4.67766,6.5412 C4.67766,6.5412,5.21868,5.91384,5.21868,5.91384 C5.21868,5.91384,4.44969,5.60573,4.44969,5.60573 C4.44969,5.60573,5.13991,5.14761,5.13991,5.14761 C5.13991,5.14761,4.48257,4.64345,4.48257,4.64345 C4.48257,4.64345,5.27079,4.38853,5.27079,4.38853 C5.27079,4.38853,4.77384,3.72572,4.77384,3.72572 C4.77384,3.72572,5.60161,3.69292,5.60161,3.69292 C5.60161,3.69292,5.30191,2.92061,5.30191,2.92061 C5.30191,2.92061,6.10784,3.11235,6.10784,3.11235 C6.10784,3.11235,6.02762,2.28782,6.02762,2.28782 C6.02762,2.28782,6.75193,2.68989,6.75193,2.68989 C6.75193,2.68989,6.89714,1.8743,6.89714,1.8743 C6.89714,1.8743,7.48611,2.45687,7.48611,2.45687 C7.48611,2.45687,7.84599,1.7107,7.84599,1.7107 C7.84599,1.7107,8.25594,2.43057,8.25594,2.43057 C8.25594,2.43057,8.80378,1.80916,8.80378,1.80916 C8.80378,1.80916,9.00431,2.61295,9.00431,2.61295 C9.00431,2.61295,9.69949,2.16239,9.69949,2.16239 C9.69949,2.16239,9.67573,2.99047,9.67573,2.99047 C9.67573,2.99047,10.4667,2.74417,10.4667,2.74417 z"/>
      <path id="Path-2" style="fill:#fbed21;fill-opacity:1;fill-rule:evenodd;opacity:1;stroke:none;" d="M9.73601,3.52776 C10.7025,4.49426,10.7025,6.06127,9.73601,7.02776 C8.76951,7.99426,7.20251,7.99426,6.23601,7.02776 C5.26951,6.06127,5.26951,4.49426,6.23601,3.52776 C7.20251,2.56127,8.76951,2.56127,9.73601,3.52776 z"/>
    </g>
  </g>
</svg>
